<?xml version="1.0" encoding="utf-8"?>
<!-- Generator: Adobe Illustrator 26.0.3, SVG Export Plug-In . SVG Version: 6.00 Build 0)  -->
<svg version="1.1" id="Layer_1" xmlns="http://www.w3.org/2000/svg" xmlns:xlink="http://www.w3.org/1999/xlink" x="0px" y="0px"
	 viewBox="0 0 435 872" style="enable-background:new 0 0 435 872;" xml:space="preserve">
<style type="text/css">
	.st0{opacity:0.35;fill:none;stroke:#FFFFFF;enable-background:new    ;}
	.st1{opacity:0.4;fill:#FFFFFF;enable-background:new    ;}
	.st2{fill:#FFFFFF;}
</style>
<g id="Artboard" transform="translate(-137.000000, -103.000000)">
	<g id="frame" transform="translate(167.000000, 133.000000)">
		<g id="Bars_x2F_Status-Bar_x2F_iPhone_x2F_Light" transform="translate(21.000000, 7.000000)">
			<g id="Battery" transform="translate(315.000000, 10.000000)">
				<path id="Border" class="st0" d="M18.9,0.8c1,0,1.4,0.1,1.8,0.3c0.3,0.2,0.6,0.5,0.8,0.8c0.2,0.4,0.3,0.8,0.3,1.8l0,0v4.5
					c0,1-0.1,1.4-0.3,1.8c-0.2,0.3-0.5,0.6-0.8,0.8c-0.4,0.2-0.8,0.3-1.8,0.3l0,0H3.8c-1,0-1.4-0.1-1.8-0.3
					c-0.3-0.2-0.6-0.5-0.8-0.8C0.9,9.7,0.8,9.3,0.8,8.2l0,0V3.8c0-1,0.1-1.4,0.3-1.8c0.2-0.3,0.5-0.6,0.8-0.8
					c0.4-0.2,0.8-0.3,1.8-0.3l0,0H18.9z"/>
				<path id="Cap" class="st1" d="M23.3,4v4c0.8-0.3,1.3-1.1,1.3-2S24.1,4.3,23.3,4"/>
				<path id="Capacity" class="st2" d="M4,2.3h14.6c0.6,0,0.8,0.1,1,0.2C19.9,2.6,20,2.8,20.2,3c0.1,0.2,0.2,0.4,0.2,1V8
					c0,0.6-0.1,0.8-0.2,1c-0.1,0.2-0.3,0.4-0.5,0.5c-0.2,0.1-0.4,0.2-1,0.2H4c-0.6,0-0.8-0.1-1-0.2C2.8,9.4,2.6,9.2,2.5,9
					S2.3,8.6,2.3,8V4c0-0.6,0.1-0.8,0.2-1S2.8,2.6,3,2.5S3.4,2.3,4,2.3z"/>
			</g>
			<path id="Wifi" class="st2" d="M302.7,12.6c2.2,0,4.4,0.9,6,2.4c0.1,0.1,0.3,0.1,0.4,0l1.2-1.2c0.1-0.1,0.1-0.1,0.1-0.2
				c0-0.1,0-0.2-0.1-0.2c-4.2-4.1-10.9-4.1-15.1,0c-0.1,0.1-0.1,0.1-0.1,0.2c0,0.1,0,0.2,0.1,0.2l1.2,1.2c0.1,0.1,0.3,0.1,0.4,0
				C298.3,13.5,300.4,12.6,302.7,12.6L302.7,12.6z M302.7,16.4c1.2,0,2.4,0.5,3.3,1.3c0.1,0.1,0.3,0.1,0.4,0l1.2-1.2
				c0.1-0.1,0.1-0.1,0.1-0.2s0-0.2-0.1-0.2c-2.8-2.6-7-2.6-9.8,0c-0.1,0.1-0.1,0.1-0.1,0.2s0,0.2,0.1,0.2l1.2,1.2
				c0.1,0.1,0.3,0.1,0.4,0C300.3,16.9,301.4,16.4,302.7,16.4L302.7,16.4z M304.9,19.2c0.1-0.1,0.1-0.1,0.1-0.2c0-0.1,0-0.2-0.1-0.2
				c-1.3-1.1-3.2-1.1-4.4,0c-0.1,0.1-0.1,0.1-0.1,0.2c0,0.1,0,0.2,0.1,0.2l2,2c0.1,0.1,0.1,0.1,0.2,0.1c0.1,0,0.2,0,0.2-0.1
				L304.9,19.2z"/>
			<path id="Cellular-Connection" class="st2" d="M274,17.3h1c0.6,0,1,0.4,1,1v2c0,0.6-0.4,1-1,1h-1c-0.6,0-1-0.4-1-1v-2
				C273,17.8,273.4,17.3,274,17.3L274,17.3z M278.7,15.3h1c0.6,0,1,0.4,1,1v4c0,0.6-0.4,1-1,1h-1c-0.6,0-1-0.4-1-1v-4
				C277.7,15.8,278.1,15.3,278.7,15.3z M283.3,13h1c0.6,0,1,0.4,1,1v6.3c0,0.6-0.4,1-1,1h-1c-0.6,0-1-0.4-1-1V14
				C282.3,13.4,282.8,13,283.3,13z M288,10.7h1c0.6,0,1,0.4,1,1v8.7c0,0.6-0.4,1-1,1h-1c-0.6,0-1-0.4-1-1v-8.7
				C287,11.1,287.4,10.7,288,10.7L288,10.7z"/>
			<g id="Time-Style" transform="translate(0.000000, 7.333300)">
				<path id="_x39_:41" class="st2" d="M16.3,14.3c2.7,0,4.3-2.1,4.3-5.7c0-3.5-1.7-5.4-4.2-5.4c-2.3,0-3.9,1.5-3.9,3.7
					c0,2,1.5,3.5,3.5,3.5c1.2,0,2.2-0.6,2.7-1.6h0.1c0,2.5-0.9,3.9-2.5,3.9c-0.9,0-1.6-0.5-1.9-1.3h-1.9
					C12.9,13.1,14.4,14.3,16.3,14.3z M16.4,8.9c-1.2,0-2.1-0.9-2.1-2.1c0-1.2,0.9-2.1,2.1-2.1s2.1,0.9,2.1,2.1
					C18.4,8.1,17.6,8.9,16.4,8.9z M23.6,7.2c0.7,0,1.2-0.5,1.2-1.1s-0.5-1.1-1.2-1.1c-0.7,0-1.2,0.5-1.2,1.1S22.9,7.2,23.6,7.2z
					 M23.6,12.5c0.7,0,1.2-0.5,1.2-1.1c0-0.7-0.5-1.1-1.2-1.1c-0.7,0-1.2,0.5-1.2,1.1C22.4,12,22.9,12.5,23.6,12.5z M33.6,14v-2H35
					v-1.6h-1.4v-7h-2.7c-1.4,2.2-2.9,4.6-4.3,7V12h5.2v2H33.6z M31.8,10.5h-3.4v-0.1c1-1.8,2.3-3.8,3.3-5.4h0.1V10.5z M40.9,14V3.4
					H39l-2.8,1.9v1.8l2.6-1.9H39V14H40.9z"/>
			</g>
		</g>
	</g>
</g>
</svg>
