<?xml version="1.0" encoding="utf-8"?>
<!-- Generator: Adobe Illustrator 27.6.1, SVG Export Plug-In . SVG Version: 6.00 Build 0)  -->
<svg version="1.1" id="Layer_1" xmlns="http://www.w3.org/2000/svg" xmlns:xlink="http://www.w3.org/1999/xlink" x="0px" y="0px"
	 viewBox="0 0 282.4 282.4" style="enable-background:new 0 0 282.4 282.4;" xml:space="preserve">
<style type="text/css">
	.st0{fill:#E29618;}
	.st1{fill:#FFCA05;}
	.st2{fill:#FFF229;}
	.st3{fill:#FFDD00;}
	.st4{fill:#FCB813;}
	.st5{fill-rule:evenodd;clip-rule:evenodd;fill:url(#SVGID_1_);}
	.st6{fill-rule:evenodd;clip-rule:evenodd;fill:#2E3191;}
	.st7{fill-rule:evenodd;clip-rule:evenodd;fill:url(#SVGID_00000162345744257799140480000002490889868810920382_);}
	.st8{fill-rule:evenodd;clip-rule:evenodd;fill:url(#SVGID_00000083061086459565937620000017891756632189197494_);}
	.st9{fill-rule:evenodd;clip-rule:evenodd;fill:url(#SVGID_00000002371720710057544730000003424139857792855207_);}
	.st10{fill-rule:evenodd;clip-rule:evenodd;fill:url(#SVGID_00000127725069256827125630000010843760766312742786_);}
	.st11{fill-rule:evenodd;clip-rule:evenodd;fill:#FFFFFF;}
	.st12{fill-rule:evenodd;clip-rule:evenodd;fill:#262169;}
	.st13{fill-rule:evenodd;clip-rule:evenodd;fill:url(#SVGID_00000088825948629563610760000013075259434670066599_);}
</style>
<g>
	<rect class="st0" width="282.4" height="282.4"/>
	<rect x="9.1" y="9.1" class="st1" width="264.2" height="264.2"/>
	<polygon class="st2" points="273.3,9.1 9.1,9.1 0,0 282.4,0 	"/>
	<polygon class="st3" points="9.1,9.1 9.1,273.3 0,282.4 0,0 	"/>
	<polygon class="st4" points="9.1,273.3 273.3,273.3 282.4,282.4 0,282.4 	"/>
	<g>
		<g>
			
				<linearGradient id="SVGID_1_" gradientUnits="userSpaceOnUse" x1="-2781.5535" y1="3036.9646" x2="-2800.3867" y2="3089.1306" gradientTransform="matrix(3.2138 0 0 -3.2138 9128.5586 9992.9102)">
				<stop  offset="0" style="stop-color:#262261"/>
				<stop  offset="0.5393" style="stop-color:#2E3191"/>
				<stop  offset="1" style="stop-color:#0086CB"/>
			</linearGradient>
			<polygon class="st5" points="141.2,25 24.5,103.4 75.1,136 134.5,95.8 112.5,81.3 139.6,62.6 201.7,104.4 93.8,177.9 
				121.4,195.8 260.5,103.1 			"/>
			<polygon class="st6" points="204.2,58.5 230.1,76.2 255.3,59.4 255.3,24.7 			"/>
			
				<linearGradient id="SVGID_00000182521009638681865030000010567552647336603807_" gradientUnits="userSpaceOnUse" x1="-2789.7144" y1="3034.0178" x2="-2808.5479" y2="3086.1841" gradientTransform="matrix(3.2138 0 0 -3.2138 9128.5586 9992.9102)">
				<stop  offset="0" style="stop-color:#262261"/>
				<stop  offset="0.5393" style="stop-color:#2E3191"/>
				<stop  offset="1" style="stop-color:#0086CB"/>
			</linearGradient>
			
				<polygon style="fill-rule:evenodd;clip-rule:evenodd;fill:url(#SVGID_00000182521009638681865030000010567552647336603807_);" points="
				141.2,258 258.1,179.2 207.3,146.1 147.8,186.8 169.6,201.4 142.8,219.3 80.1,177.9 189,104.7 161.9,86.7 22.5,179.6 22.9,179.9 
							"/>
		</g>
		<g>
			
				<linearGradient id="SVGID_00000014601029409782009820000009670999936246649520_" gradientUnits="userSpaceOnUse" x1="-2777.9358" y1="3047.0598" x2="-2804.0916" y2="3088.9092" gradientTransform="matrix(3.2138 0 0 -3.2138 9128.5586 9992.9102)">
				<stop  offset="0" style="stop-color:#2E3191"/>
				<stop  offset="1" style="stop-color:#0086CB"/>
			</linearGradient>
			
				<polygon style="fill-rule:evenodd;clip-rule:evenodd;fill:url(#SVGID_00000014601029409782009820000009670999936246649520_);" points="
				141.2,27.3 28.2,103.1 75.2,133.6 131.5,95.7 109.2,81.1 139.5,57.8 209.6,104.6 101.3,177.6 120.8,190.1 252,103.1 			"/>
			
				<linearGradient id="SVGID_00000081643865475709978550000017634067150255314570_" gradientUnits="userSpaceOnUse" x1="-2763.1643" y1="3090.4661" x2="-2768.7893" y2="3096.0911" gradientTransform="matrix(3.2138 0 0 -3.2138 9128.5586 9992.9102)">
				<stop  offset="0" style="stop-color:#2E3191"/>
				<stop  offset="1" style="stop-color:#0086CB"/>
			</linearGradient>
			
				<polygon style="fill-rule:evenodd;clip-rule:evenodd;fill:url(#SVGID_00000081643865475709978550000017634067150255314570_);" points="
				206.9,58.5 230.4,74.4 254,58.5 254,27.3 			"/>
			
				<linearGradient id="SVGID_00000142884662504641448360000014669180869572424635_" gradientUnits="userSpaceOnUse" x1="-2788.5491" y1="3040.4255" x2="-2814.7056" y2="3082.2764" gradientTransform="matrix(3.2138 0 0 -3.2138 9128.5586 9992.9102)">
				<stop  offset="0" style="stop-color:#2E3191"/>
				<stop  offset="1" style="stop-color:#0086CB"/>
			</linearGradient>
			
				<polygon style="fill-rule:evenodd;clip-rule:evenodd;fill:url(#SVGID_00000142884662504641448360000014669180869572424635_);" points="
				142,252.1 250.1,179.3 207.1,151.2 155.2,186.5 176.8,201.2 142.7,224.5 72.8,177.7 180.9,104.7 160.8,92.1 30.4,179.3 			"/>
		</g>
		<polygon class="st11" points="141.2,29.7 32.3,103.1 28.2,103.1 141.2,27.3 		"/>
		<polygon class="st11" points="176.8,201.2 142.7,224.5 142.7,221.7 173.3,201.3 		"/>
		<polygon class="st11" points="207.1,151.2 155.2,186.5 151,186.6 207.2,148.7 		"/>
		<polygon class="st11" points="209.6,104.6 101.3,177.6 97.2,177.6 206,104.6 		"/>
		<polygon class="st11" points="160.8,92.1 30.4,179.3 26.3,179.3 161.6,89.2 		"/>
		<polygon class="st12" points="142,252.1 250.1,179.3 258.1,179.2 141.2,258 		"/>
		<polygon class="st6" points="141.2,29.7 252,103 260.5,103.1 141.2,25 		"/>
		<polygon class="st6" points="32.3,103.1 75.3,131 75.1,136 24.5,103.4 		"/>
		<polygon class="st6" points="126.8,95.9 105.2,81.2 139.5,57.8 139.6,62.6 112.5,81.3 134.5,95.8 		"/>
		<polygon class="st6" points="75.3,131 130.8,93.4 134.5,95.8 75.1,136 		"/>
		<polygon class="st11" points="252.4,30.9 211,58.5 206.9,58.5 254,27.3 		"/>
		<polygon class="st6" points="231.4,72.2 252.1,58.1 254,58.5 230.4,74.4 		"/>
		<polygon class="st6" points="210.8,58.6 231.4,72.2 230.4,74.4 206.9,58.5 		"/>
		<polygon class="st6" points="252.1,58.1 252.4,30.9 254,27.3 254,58.5 		"/>
		<polygon class="st6" points="77.4,224.2 51.4,206.6 26.3,223.4 26.3,258.1 		"/>
		
			<linearGradient id="SVGID_00000142142571688545132670000006730971114768465034_" gradientUnits="userSpaceOnUse" x1="-5352.6904" y1="5636.0117" x2="-5358.3159" y2="5641.6372" gradientTransform="matrix(-3.2138 0 0 3.2138 -17169.2168 -17891.0371)">
			<stop  offset="0" style="stop-color:#2E3191"/>
			<stop  offset="1" style="stop-color:#0086CB"/>
		</linearGradient>
		
			<polygon style="fill-rule:evenodd;clip-rule:evenodd;fill:url(#SVGID_00000142142571688545132670000006730971114768465034_);" points="
			74.6,224.3 51.1,208.4 27.6,224.3 27.6,255.4 		"/>
		<polygon class="st6" points="29.2,251.9 70.6,224.3 74.6,224.3 27.6,255.4 		"/>
		<polygon class="st11" points="50.2,210.5 29.5,224.6 27.6,224.3 51.1,208.4 		"/>
		<polygon class="st6" points="70.8,224.2 50.2,210.5 51.1,208.4 74.6,224.3 		"/>
		<polygon class="st6" points="29.5,224.6 29.2,251.9 27.6,255.4 27.6,224.3 		"/>
		<polygon class="st6" points="139.5,57.8 209.6,104.6 201.7,104.4 139.6,62.6 		"/>
	</g>
</g>
</svg>
