<?xml version="1.0" encoding="utf-8"?>
<!-- Generator: Adobe Illustrator 26.0.3, SVG Export Plug-In . SVG Version: 6.00 Build 0)  -->
<svg version="1.1" id="Layer_1" xmlns="http://www.w3.org/2000/svg" xmlns:xlink="http://www.w3.org/1999/xlink" x="0px" y="0px"
	 viewBox="0 0 35 35" style="enable-background:new 0 0 35 35;" xml:space="preserve">
<style type="text/css">
	.st0{fill:url(#SVGID_1_);}
	.st1{fill:#FFFFFF;}
</style>
<g>
	<g>
		
			<linearGradient id="SVGID_1_" gradientUnits="userSpaceOnUse" x1="-2962.2288" y1="845.9258" x2="-2942.7712" y2="873.7143" gradientTransform="matrix(1 0 0 -1 2970 877.3201)">
			<stop  offset="0" style="stop-color:#FDB813"/>
			<stop  offset="0.5" style="stop-color:#ED1887"/>
			<stop  offset="1" style="stop-color:#5E58A6"/>
		</linearGradient>
		<circle class="st0" cx="17.5" cy="17.5" r="17"/>
	</g>
	<g>
		<g>
			<path class="st1" d="M22.4,28.1h-9.7c-3.2,0-5.7-2.6-5.7-5.7v-9.7c0-3.2,2.6-5.7,5.7-5.7h9.7c3.2,0,5.7,2.6,5.7,5.7v9.7
				C28.1,25.5,25.5,28.1,22.4,28.1z M12.6,8.7c-2.2,0-4,1.8-4,4v9.7c0,2.2,1.8,4,4,4h9.7c2.2,0,4-1.8,4-4v-9.7c0-2.2-1.8-4-4-4H12.6
				z"/>
		</g>
		<g>
			<path class="st1" d="M17.5,22.8c-2.9,0-5.3-2.4-5.3-5.3c0-2.9,2.4-5.3,5.3-5.3s5.3,2.4,5.3,5.3C22.8,20.4,20.4,22.8,17.5,22.8z
				 M17.5,14c-1.9,0-3.5,1.6-3.5,3.5c0,1.9,1.6,3.5,3.5,3.5c1.9,0,3.5-1.6,3.5-3.5C21,15.6,19.4,14,17.5,14z"/>
		</g>
		<g>
			<path class="st1" d="M23.1,10.7c0.7,0,1.2,0.5,1.2,1.2s-0.5,1.2-1.2,1.2c-0.7,0-1.2-0.5-1.2-1.2S22.5,10.7,23.1,10.7z"/>
		</g>
	</g>
</g>
</svg>
