<svg width="59" height="62" viewBox="0 0 59 62" fill="none" xmlns="http://www.w3.org/2000/svg">
<path fill-rule="evenodd" clip-rule="evenodd" d="M42.6509 1.8433C34.6591 1.8433 28.1572 8.1503 28.1572 15.9016V30.5053H5.69533C2.75479 30.5053 0.370605 32.8172 0.370605 35.6713V55.9691C0.370605 58.8232 2.75479 61.1366 5.69533 61.1366H31.6903C34.6308 61.1366 37.0166 58.8232 37.0166 55.9691V35.6713C37.0166 33.0797 35.0473 30.9407 32.4824 30.5682V15.9016C32.4824 10.4638 37.0449 6.03801 42.6509 6.03801C48.2569 6.03801 52.8194 10.4638 52.8194 15.9016V25.1916C52.8194 26.3499 53.786 27.2898 54.9804 27.2898C56.1733 27.2898 57.143 26.3499 57.143 25.1916V15.9016C57.143 8.1503 50.6411 1.8433 42.6509 1.8433" fill="white"/>
</svg>
