<?xml version="1.0" encoding="utf-8"?>
<!-- Generator: Adobe Illustrator 26.0.3, SVG Export Plug-In . SVG Version: 6.00 Build 0)  -->
<svg version="1.1" id="Layer_1" xmlns="http://www.w3.org/2000/svg" xmlns:xlink="http://www.w3.org/1999/xlink" x="0px" y="0px"
	 viewBox="0 0 35 35" style="enable-background:new 0 0 35 35;" xml:space="preserve">
<style type="text/css">
	.st0{fill:#E60019;}
	.st1{fill:#FFFFFF;}
</style>
<g>
	<ellipse class="st0" cx="17.5" cy="17.5" rx="17" ry="17"/>
	<g>
		<path class="st1" d="M14.6,29.2c0.2-0.8,1.1-4,1.1-4c0.6,1.1,2.2,1.9,3.9,1.9c5.1,0,8.8-4.7,8.8-10.5c0-5.6-4.6-9.8-10.4-9.8
			c-7.3,0-11.2,4.9-11.2,10.3c0,2.5,1.3,5.6,3.4,6.6c0.3,0.1,0.5,0.1,0.6-0.2c0.1-0.2,0.3-1.4,0.5-1.9c0-0.2,0-0.3-0.1-0.5
			c-0.7-0.8-1.3-2.4-1.3-3.9c0-3.7,2.8-7.4,7.7-7.4c4.2,0,7.1,2.8,7.1,6.9c0,4.6-2.3,7.8-5.3,7.8c-1.7,0-2.9-1.4-2.5-3.1
			c0.5-2,1.4-4.2,1.4-5.6c0-1.3-0.7-2.4-2.1-2.4c-1.7,0-3.1,1.8-3.1,4.1c0,1.5,0.5,2.5,0.5,2.5s-1.7,7.1-2,8.4
			c-0.3,1.5-0.2,3.8-0.1,4.9l0,0c0.4,0.1,0.8,0.3,1.1,0.4l0,0C12.9,33,14.2,30.7,14.6,29.2z"/>
	</g>
</g>
</svg>
