<?xml version="1.0" encoding="utf-8"?>
<!-- Generator: Adobe Illustrator 26.0.3, SVG Export Plug-In . SVG Version: 6.00 Build 0)  -->
<svg version="1.1" id="Layer_1" xmlns="http://www.w3.org/2000/svg" xmlns:xlink="http://www.w3.org/1999/xlink" x="0px" y="0px"
	 viewBox="0 0 35 35" style="enable-background:new 0 0 35 35;" xml:space="preserve">
<style type="text/css">
	.st0{fill:#010101;}
	.st1{fill:#67C9D0;}
	.st2{fill:#EE1D53;}
	.st3{fill:#FFFFFF;}
</style>
<g>
	<circle class="st0" cx="17.5" cy="17.5" r="17"/>
	<g>
		<g>
			<path class="st1" d="M15.3,15.1v-0.9c-0.3,0-0.6-0.1-0.9-0.1c-3.8,0-6.8,3.1-6.8,6.8c0,2.3,1.2,4.4,2.9,5.6
				c-1.2-1.3-1.8-2.9-1.8-4.6C8.6,18.2,11.6,15.2,15.3,15.1"/>
			<path class="st1" d="M15.5,25c1.7,0,3-1.3,3.1-3l0-14.9h2.7c-0.1-0.3-0.1-0.6-0.1-0.9h-3.7l0,14.9c-0.1,1.7-1.4,3-3.1,3
				c-0.5,0-1-0.1-1.4-0.4C13.5,24.6,14.5,25,15.5,25 M26.4,12.2v-0.8c-1,0-2-0.3-2.8-0.8C24.3,11.4,25.3,12,26.4,12.2"/>
			<path class="st2" d="M23.6,10.6c-0.8-0.9-1.3-2.1-1.3-3.4h-1C21.6,8.6,22.4,9.8,23.6,10.6 M14.4,17.9c-1.7,0-3.1,1.4-3.1,3.1
				c0,1.2,0.6,2.2,1.7,2.8c-0.4-0.5-0.6-1.2-0.6-1.8c0-1.7,1.4-3.1,3.1-3.1c0.3,0,0.6,0.1,0.9,0.1v-3.8c-0.3,0-0.6-0.1-0.9-0.1
				c-0.1,0-0.1,0-0.2,0V18C15,17.9,14.7,17.9,14.4,17.9"/>
			<path class="st2" d="M26.4,12.2v2.9c-1.9,0-3.7-0.6-5.2-1.7V21c0,3.8-3.1,6.8-6.8,6.8c-1.5,0-2.8-0.5-3.9-1.2
				c1.3,1.4,3.1,2.2,5,2.2c3.8,0,6.8-3.1,6.8-6.8v-7.5c1.5,1.1,3.3,1.7,5.2,1.7v-3.7C27.1,12.3,26.7,12.3,26.4,12.2"/>
			<path class="st3" d="M21.2,21v-7.5c1.5,1.1,3.3,1.7,5.2,1.7v-2.9c-1.1-0.2-2.1-0.8-2.8-1.7c-1.2-0.8-2-2-2.3-3.4h-2.7l0,14.9
				c-0.1,1.7-1.4,3-3.1,3c-1,0-1.9-0.5-2.5-1.3c-1-0.5-1.7-1.6-1.7-2.8c0-1.7,1.4-3.1,3.1-3.1c0.3,0,0.6,0.1,0.9,0.1v-2.9
				c-3.7,0.1-6.7,3.1-6.7,6.8c0,1.8,0.7,3.4,1.8,4.6c1.1,0.8,2.5,1.2,3.9,1.2C18.1,27.8,21.2,24.8,21.2,21"/>
		</g>
	</g>
</g>
</svg>
