<?xml version="1.0" encoding="utf-8"?>
<!-- Generator: Adobe Illustrator 27.2.0, SVG Export Plug-In . SVG Version: 6.00 Build 0)  -->
<svg version="1.1" id="Layer_1" xmlns="http://www.w3.org/2000/svg" xmlns:xlink="http://www.w3.org/1999/xlink" x="0px" y="0px"
	 viewBox="0 0 200 180.3" style="enable-background:new 0 0 200 180.3;" xml:space="preserve">
<style type="text/css">
	.st0{fill:#010101;}
</style>
<g>
	<path class="st0" d="M175.7,0c0,0,1.7,14.7-13.2,27.2c-15,12.4-62.5,26.2-62.5,26.2S52.5,39.6,37.5,27.2C22.6,14.7,24.3,0,24.3,0H0
		c0,11.5,2.4,32.3,24.5,47.8c22.1,15.4,48.3,21.4,48.3,21.4c-9.6,8.4-21.1,24.9-21.1,44.2c0,19.3,14.6,37.3,22.4,46.3
		c7.8,9,13.3,20.7,13.3,20.7H100h12.4c0,0,5.5-11.7,13.3-20.7c7.8-9,22.4-26.9,22.4-46.3c0-19.3-11.5-35.8-21.1-44.2
		c0,0,26.2-6,48.3-21.4C197.6,32.3,200,11.5,200,0H175.7z M120.5,125.1c-4.7,8.7-20.2,28-20.2,28c-0.1,0-0.2,0-0.3,0
		c-0.1,0-0.2,0-0.3,0c0,0-15.5-19.3-20.2-28C70,107.3,79.4,91.7,100,80.8C120.6,91.7,130,107.3,120.5,125.1z"/>
</g>
</svg>
